PathFileType	4	(X/Y/Z)	/Users/itak/Documents/Research/Walk-IL/dataset/trc/00361_00011.trc
DataRate	CameraRate	NumFrames	NumMarkers	Units	OrigDataRate	OrigDataStartFrame	OrigNumFrames
100.000000	100.000000	4	54	mm	100.000000	0	563
Frame#	Time	RPSI			LPSI			L3			STRN			T10			C7			CLAV			RBAK			LBAK			LSHO			LUPA			LAEL			LAOL			LWTS			LWPS			LFRA			LIFD			LHPS			LHTS			RSHO			RUPA			RAEL			RAOL			RWTS			RWPS			RFRA			RIFD			RHTS			RHPS			RBHD			LFHD			RFHD			LBHD			LHIP			RHIP			RASI			LASI			LKNE			LTHI			LANK			LTIP			LTOE			LMT1			LMT5			LHEE			RKNE			RTHI			RTIP			RTOE			RMT1			RMT5			RANK			RHEE			*53			
		X1	Y1	Z1	X2	Y2	Z2	X3	Y3	Z3	X4	Y4	Z4	X5	Y5	Z5	X6	Y6	Z6	X7	Y7	Z7	X8	Y8	Z8	X9	Y9	Z9	X10	Y10	Z10	X11	Y11	Z11	X12	Y12	Z12	X13	Y13	Z13	X14	Y14	Z14	X15	Y15	Z15	X16	Y16	Z16	X17	Y17	Z17	X18	Y18	Z18	X19	Y19	Z19	X20	Y20	Z20	X21	Y21	Z21	X22	Y22	Z22	X23	Y23	Z23	X24	Y24	Z24	X25	Y25	Z25	X26	Y26	Z26	X27	Y27	Z27	X28	Y28	Z28	X29	Y29	Z29	X30	Y30	Z30	X31	Y31	Z31	X32	Y32	Z32	X33	Y33	Z33	X34	Y34	Z34	X35	Y35	Z35	X36	Y36	Z36	X37	Y37	Z37	X38	Y38	Z38	X39	Y39	Z39	X40	Y40	Z40	X41	Y41	Z41	X42	Y42	Z42	X43	Y43	Z43	X44	Y44	Z44	X45	Y45	Z45	X46	Y46	Z46	X47	Y47	Z47	X48	Y48	Z48	X49	Y49	Z49	X50	Y50	Z50	X51	Y51	Z51	X52	Y52	Z52	X53	Y53	Z53	X54	Y54	Z54	

1	0	-1392.30712890625	980.5427856445312	823.8213500976562	-1388.824584960938	978.6102905273438	695.314697265625	-1390.978515625	1030.587646484375	762.2322998046875	-1173.787841796875	1226.51708984375	756.404541015625	-1407.580200195312	1147.969482421875	746.662353515625	-1378.429443359375	1398.091552734375	727.3486328125	-1219.805419921875	1351.898193359375	746.7172241210938	-1423.761962890625	1258.6240234375	795.7327270507812	-1380.0712890625	1357.50390625	624.9478149414062	-1290.896118164062	1377.892333984375	575.9014892578125	-1293.665649414062	1253.717041015625	513.686279296875	-1257.39111328125	1051.483764648438	512.8456420898438	-1327.364990234375	1034.624267578125	559.3947143554688	-1142.182983398438	825.8004760742188	588.71826171875	-1170.1640625	806.3531494140625	527.851806640625	-1230.011962890625	949.3566284179688	514.6472778320312	-1116.438598632812	666.6768188476562	602.1203002929688	-1165.148559570312	736.9031372070312	539.9527587890625	-1120.648315429688	749.6810302734375	581.70849609375	-1334.2109375	1392.866088867188	895.9097900390625	-1345.366577148438	1327.27685546875	958.8130493164062	-1318.061767578125	1058.34375	995.6207275390625	-1354.006103515625	1050.20849609375	909.0196533203125	-1189.84375	840.1917724609375	945.4598388671875	-1224.914184570312	820.4312133789062	1011.097839355469	-1288.900390625	993.3541870117188	1004.105773925781	-1163.414428710938	668.0379028320312	952.0999755859375	-1154.190551757812	741.4658813476562	957.634765625	-1203.451049804688	738.1465454101562	1007.049621582031	-1365.721923828125	1604.835693359375	807.8041381835938	-1184.351440429688	1634.1689453125	708.92578125	-1205.356811523438	1634.0947265625	807.5765380859375	-1360.2724609375	1596.946655273438	662.1530151367188	-1300.28955078125	921.8856811523438	593.9259033203125	-1315.95361328125	929.7049560546875	937.172607421875	-1209.942749023438	955.7278442382812	897.799072265625	-1180.796997070312	947.3333740234375	659.3994750976562	-1274.262817382812	468.9630126953125	583.4086303710938	-1262.755615234375	606.0236206054688	581.342041015625	-1350.091186523438	52.4902458190918	563.1119995117188	-1313.66015625	255.9749755859375	560.6320190429688	-1152.593017578125	46.09488296508789	646.515380859375	-1227.84619140625	33.66559982299805	677.2426147460938	-1222.877197265625	47.35318756103516	564.0658569335938	-1392.69189453125	45.44353866577148	624.5610961914062	-1313.00634765625	469.0187377929688	939.59033203125	-1253.304809570312	724.2676391601562	951.0848388671875	-1313.686279296875	352.5696716308594	940.3368530273438	-1189.013061523438	49.07373046875	905.9805297851562	-1239.492431640625	46.11970520019531	860.2861938476562	-1286.470336914062	36.69838714599609	969.1015625	-1386.084594726562	50.92686080932617	943.8377685546875	-1428.263549804688	51.78061294555664	894.4292602539062	nan	nan	nan	
2	0.01	-1392.328125	980.5731811523438	823.8192749023438	-1388.796997070312	978.616943359375	695.3150634765625	-1390.978759765625	1030.59912109375	762.2147827148438	-1173.776733398438	1226.522827148438	756.4050903320312	-1407.553588867188	1148.019287109375	746.5897216796875	-1378.407470703125	1398.088500976562	727.2401733398438	-1219.775024414062	1351.892456054688	746.670654296875	-1423.7177734375	1258.62939453125	795.6009521484375	-1380.021118164062	1357.5087890625	624.8876953125	-1290.881713867188	1377.89208984375	575.8826293945312	-1293.632690429688	1253.7041015625	513.6985473632812	-1257.20654296875	1051.489501953125	512.7515258789062	-1327.1123046875	1034.662109375	559.2562255859375	-1142.095703125	825.7537841796875	588.4425659179688	-1170.185180664062	806.3247680664062	527.669677734375	-1229.869262695312	949.3801879882812	514.5123901367188	-1116.507934570312	666.585693359375	601.5625	-1165.132934570312	736.9005737304688	539.6253662109375	-1120.3798828125	749.6757202148438	581.3528442382812	-1334.214111328125	1392.868530273438	895.8251342773438	-1345.405517578125	1327.287353515625	958.7294311523438	-1318.248779296875	1058.395629882812	995.5703125	-1354.140380859375	1050.268920898438	908.9462280273438	-1190.148193359375	840.15625	945.2915649414062	-1225.134399414062	820.4447021484375	1010.95263671875	-1289.082275390625	993.3207397460938	1004.056640625	-1163.799072265625	668.02978515625	951.8132934570312	-1154.464233398438	741.4215087890625	957.6467895507812	-1203.670532226562	738.2247314453125	1006.957641601562	-1365.595336914062	1604.78125	807.495849609375	-1184.223388671875	1634.13427734375	708.806640625	-1205.240600585938	1634.071166992188	807.4151611328125	-1360.2255859375	1596.961181640625	662.0441284179688	-1300.295043945312	921.9061889648438	593.9075927734375	-1315.947387695312	929.75	937.2855224609375	-1209.9267578125	955.7704467773438	897.907470703125	-1180.777709960938	947.2833862304688	659.4375610351562	-1274.297607421875	468.9750061035156	583.4215698242188	-1262.763427734375	606.01611328125	581.374267578125	-1350.096435546875	52.48249816894531	563.1190795898438	-1313.674194335938	255.9771423339844	560.6466064453125	-1152.583862304688	46.08299255371094	646.5430908203125	-1227.86083984375	33.6512451171875	677.2440185546875	-1222.884033203125	47.35626983642578	564.0699462890625	-1392.692749023438	45.43902969360352	624.5630493164062	-1313.0517578125	469.0345458984375	939.6800537109375	-1254.415405273438	725.3676147460938	952.2785034179688	-1313.6669921875	352.57373046875	940.358642578125	-1189.0244140625	49.07699966430664	905.97998046875	-1239.528564453125	46.15207672119141	860.3111572265625	-1286.470825195312	36.69474411010742	969.1022338867188	-1386.075927734375	50.92982864379883	943.8363037109375	-1428.2919921875	51.91630935668945	894.4655151367188	nan	nan	nan	
3	0.02	-1392.353637695312	980.6095581054688	823.8163452148438	-1388.7646484375	978.6260986328125	695.3129272460938	-1390.977172851562	1030.612670898438	762.1920166015625	-1173.75927734375	1226.530151367188	756.407470703125	-1407.517211914062	1148.092163085938	746.491455078125	-1378.376586914062	1398.084594726562	727.1079711914062	-1219.733642578125	1351.88525390625	746.6116943359375	-1423.661987304688	1258.6435546875	795.4454345703125	-1379.950561523438	1357.512817382812	624.8070678710938	-1290.861938476562	1377.895263671875	575.8590698242188	-1293.590087890625	1253.689208984375	513.7039794921875	-1256.997680664062	1051.504028320312	512.6257934570312	-1326.843505859375	1034.712158203125	559.0624389648438	-1142.018432617188	825.6676025390625	588.0473022460938	-1170.224975585938	806.2967529296875	527.3916625976562	-1229.702514648438	949.4024658203125	514.3234252929688	-1116.49658203125	666.5841674804688	600.7411499023438	-1165.1474609375	736.8251342773438	539.1970825195312	-1120.100708007812	749.6243896484375	580.8292236328125	-1334.213500976562	1392.87353515625	895.7214965820312	-1345.442993164062	1327.305541992188	958.6279296875	-1318.482788085938	1058.455688476562	995.5025024414062	-1354.305908203125	1050.3388671875	908.849365234375	-1190.498168945312	840.1128540039062	945.0919799804688	-1225.429077148438	820.45849609375	1010.7880859375	-1289.306518554688	993.2804565429688	1004.003112792969	-1164.267822265625	668.0204467773438	951.475830078125	-1154.79736328125	741.415771484375	957.62353515625	-1203.966796875	738.303955078125	1006.828979492188	-1365.44775390625	1604.724243164062	807.1339721679688	-1184.064697265625	1634.087646484375	708.6593017578125	-1205.10302734375	1634.046264648438	807.219482421875	-1360.164428710938	1596.974243164062	661.9076538085938	-1300.298583984375	921.931396484375	593.8850708007812	-1315.94287109375	929.8024291992188	937.4169311523438	-1209.910278320312	955.8211669921875	898.0316772460938	-1180.753173828125	947.2216186523438	659.483642578125	-1274.342163085938	468.9925842285156	583.439208984375	-1262.776245117188	606.0046997070312	581.416748046875	-1350.102294921875	52.47424697875977	563.1258544921875	-1313.691528320312	255.9803924560547	560.6640625	-1152.576293945312	46.07231521606445	646.5699462890625	-1227.876831054688	33.63660430908203	677.2462768554688	-1222.891479492188	47.36009216308594	564.07421875	-1392.693481445312	45.43229293823242	624.5658569335938	-1313.108642578125	469.0540161132812	939.7891845703125	-1255.782958984375	726.724853515625	953.7452392578125	-1313.643920898438	352.5787963867188	940.3840942382812	-1189.035766601562	49.08034133911133	905.9810791015625	-1239.561645507812	46.18072891235352	860.335205078125	-1286.473510742188	36.69013595581055	969.1025390625	-1386.068603515625	50.93144226074219	943.8368530273438	-1428.315307617188	52.07511901855469	894.5038452148438	nan	nan	nan	
4	0.03	-1392.382202148438	980.6494750976562	823.8131713867188	-1388.729858398438	978.6378173828125	695.3072509765625	-1390.9736328125	1030.627563476562	762.164794921875	-1173.735229492188	1226.538696289062	756.4122924804688	-1407.470703125	1148.185791015625	746.371826171875	-1378.336791992188	1398.080322265625	726.9601440429688	-1219.681884765625	1351.877319335938	746.5430297851562	-1423.597290039062	1258.669677734375	795.2772827148438	-1379.859497070312	1357.514892578125	624.7072143554688	-1290.836059570312	1377.903564453125	575.8310546875	-1293.537841796875	1253.674072265625	513.6959838867188	-1256.785400390625	1051.528564453125	512.469482421875	-1326.581298828125	1034.7685546875	558.8170166015625	-1141.971313476562	825.5302124023438	587.529052734375	-1170.290161132812	806.2664184570312	527.0050659179688	-1229.524780273438	949.4200439453125	514.0752563476562	-1116.346313476562	666.73046875	599.6334228515625	-1165.225952148438	736.6713256835938	538.6568603515625	-1119.870361328125	749.5009155273438	580.1309814453125	-1334.206787109375	1392.8818359375	895.6044921875	-1345.472290039062	1327.333374023438	958.51416015625	-1318.751220703125	1058.518920898438	995.4185180664062	-1354.494750976562	1050.4150390625	908.7301025390625	-1190.862426757812	840.0670166015625	944.8775634765625	-1225.790771484375	820.4700927734375	1010.619506835938	-1289.56201171875	993.2352905273438	1003.951110839844	-1164.79736328125	668.006591796875	951.11572265625	-1155.181884765625	741.4644165039062	957.5615844726562	-1204.337524414062	738.3679809570312	1006.659606933594	-1365.2919921875	1604.674072265625	806.748291015625	-1183.884643554688	1634.031372070312	708.4898681640625	-1204.955200195312	1634.023315429688	807.0025024414062	-1360.090087890625	1596.983032226562	661.749267578125	-1300.299194335938	921.9601440429688	593.8597412109375	-1315.944946289062	929.8604125976562	937.5514526367188	-1209.898803710938	955.8782348632812	898.1564331054688	-1180.724365234375	947.1516723632812	659.5343017578125	-1274.394409179688	469.015380859375	583.4613037109375	-1262.79443359375	605.9893798828125	581.468505859375	-1350.108032226562	52.466552734375	563.1307983398438	-1313.711181640625	255.9842681884766	560.68310546875	-1152.569091796875	46.06240081787109	646.5951538085938	-1227.892211914062	33.62373352050781	677.2492065429688	-1222.898803710938	47.36406326293945	564.078125	-1392.694213867188	45.42365264892578	624.5698852539062	-1313.173217773438	469.076171875	939.911376953125	-1257.3125	728.2454223632812	955.3805541992188	-1313.6181640625	352.5844116210938	940.4112548828125	-1189.046142578125	49.08324432373047	905.9844970703125	-1239.5869140625	46.20124053955078	860.3554077148438	-1286.4794921875	36.68466186523438	969.1019897460938	-1386.065307617188	50.93231964111328	943.841064453125	-1428.329345703125	52.24745178222656	894.5407104492188	nan	nan	nan	
